  0
SECTION
  2
HEADER
  9
$ACADVER
  1
AC1009
  9
$MEASUREMENT
 70
     1
  0
ENDSEC
  0
SECTION
  2
ENTITIES
  0
LWPOLYLINE
  8
0
 62
7
 90
5
 70
1
 10
37.000000
 20
25.617438
 10
36.620562
 20
25.617438
 10
36.620562
 20
24.858562
 10
37.379438
 20
24.858562
 10
37.379438
 20
25.617438
  0
LWPOLYLINE
  8
0
 62
7
 90
5
 70
1
 10
37.000000
 20
27.141438
 10
36.620562
 20
27.141438
 10
36.620562
 20
26.382562
 10
37.379438
 20
26.382562
 10
37.379438
 20
27.141438
  0
LWPOLYLINE
  8
0
 62
7
 90
5
 70
1
 10
37.000000
 20
30.382562
 10
37.379438
 20
30.382562
 10
37.379438
 20
31.141438
 10
36.620562
 20
31.141438
 10
36.620562
 20
30.382562
  0
LWPOLYLINE
  8
0
 62
7
 90
5
 70
1
 10
37.000000
 20
28.858562
 10
37.379438
 20
28.858562
 10
37.379438
 20
29.617438
 10
36.620562
 20
29.617438
 10
36.620562
 20
28.858562
  0
LWPOLYLINE
  8
0
 62
7
 90
5
 70
1
 10
11.500000
 20
31.501562
 10
12.098437
 20
31.501562
 10
12.098437
 20
32.298437
 10
10.901563
 20
32.298437
 10
10.901563
 20
31.501562
  0
LWPOLYLINE
  8
0
 62
7
 90
5
 70
1
 10
11.500000
 20
29.701563
 10
12.098437
 20
29.701563
 10
12.098437
 20
30.498438
 10
10.901563
 20
30.498438
 10
10.901563
 20
29.701563
  0
LWPOLYLINE
  8
0
 62
7
 90
5
 70
1
 10
25.500000
 20
31.382562
 10
25.879438
 20
31.382562
 10
25.879438
 20
32.141438
 10
25.120562
 20
32.141438
 10
25.120562
 20
31.382562
  0
LWPOLYLINE
  8
0
 62
7
 90
5
 70
1
 10
25.500000
 20
29.858562
 10
25.879438
 20
29.858562
 10
25.879438
 20
30.617438
 10
25.120562
 20
30.617438
 10
25.120562
 20
29.858562
  0
LWPOLYLINE
  8
0
 62
7
 90
5
 70
1
 10
16.617438
 20
20.500000
 10
16.617438
 20
20.879438
 10
15.858562
 20
20.879438
 10
15.858562
 20
20.120562
 10
16.617438
 20
20.120562
  0
LWPOLYLINE
  8
0
 62
7
 90
5
 70
1
 10
18.141438
 20
20.500000
 10
18.141438
 20
20.879438
 10
17.382562
 20
20.879438
 10
17.382562
 20
20.120562
 10
18.141438
 20
20.120562
  0
LWPOLYLINE
  8
0
 62
7
 90
5
 70
1
 10
14.500000
 20
23.617438
 10
14.120563
 20
23.617438
 10
14.120563
 20
22.858562
 10
14.879437
 20
22.858562
 10
14.879437
 20
23.617438
  0
LWPOLYLINE
  8
0
 62
7
 90
5
 70
1
 10
14.500000
 20
25.141438
 10
14.120563
 20
25.141438
 10
14.120563
 20
24.382562
 10
14.879437
 20
24.382562
 10
14.879437
 20
25.141438
  0
LWPOLYLINE
  8
0
 62
7
 90
5
 70
1
 10
4.498437
 20
31.000000
 10
4.498437
 20
32.698437
 10
2.601563
 20
32.698437
 10
2.601563
 20
29.301562
 10
4.498437
 20
29.301562
  0
LWPOLYLINE
  8
0
 62
7
 90
5
 70
1
 10
8.398438
 20
31.000000
 10
8.398438
 20
32.698437
 10
6.501563
 20
32.698437
 10
6.501563
 20
29.301562
 10
8.398438
 20
29.301562
  0
LWPOLYLINE
  8
0
 62
7
 90
5
 70
1
 10
33.000000
 20
27.051562
 10
33.248438
 20
27.051562
 10
33.248438
 20
28.548438
 10
32.751562
 20
28.548438
 10
32.751562
 20
27.051562
  0
LWPOLYLINE
  8
0
 62
7
 90
5
 70
1
 10
32.200000
 20
27.051562
 10
32.448438
 20
27.051562
 10
32.448438
 20
28.548438
 10
31.951563
 20
28.548438
 10
31.951563
 20
27.051562
  0
LWPOLYLINE
  8
0
 62
7
 90
5
 70
1
 10
31.400000
 20
27.051562
 10
31.648438
 20
27.051562
 10
31.648438
 20
28.548438
 10
31.151562
 20
28.548438
 10
31.151562
 20
27.051562
  0
LWPOLYLINE
  8
0
 62
7
 90
5
 70
1
 10
30.600000
 20
27.051562
 10
30.848438
 20
27.051562
 10
30.848438
 20
28.548438
 10
30.351563
 20
28.548438
 10
30.351563
 20
27.051562
  0
LWPOLYLINE
  8
0
 62
7
 90
5
 70
1
 10
29.800000
 20
27.051562
 10
30.048438
 20
27.051562
 10
30.048438
 20
28.548438
 10
29.551562
 20
28.548438
 10
29.551562
 20
27.051562
  0
LWPOLYLINE
  8
0
 62
7
 90
5
 70
1
 10
29.000000
 20
27.051562
 10
29.248438
 20
27.051562
 10
29.248438
 20
28.548438
 10
28.751562
 20
28.548438
 10
28.751562
 20
27.051562
  0
LWPOLYLINE
  8
0
 62
7
 90
5
 70
1
 10
28.200000
 20
27.051562
 10
28.448438
 20
27.051562
 10
28.448438
 20
28.548438
 10
27.951562
 20
28.548438
 10
27.951562
 20
27.051562
  0
LWPOLYLINE
  8
0
 62
7
 90
5
 70
1
 10
27.400000
 20
27.051562
 10
27.648438
 20
27.051562
 10
27.648438
 20
28.548438
 10
27.151562
 20
28.548438
 10
27.151562
 20
27.051562
  0
LWPOLYLINE
  8
0
 62
7
 90
5
 70
1
 10
26.600000
 20
27.051562
 10
26.848438
 20
27.051562
 10
26.848438
 20
28.548438
 10
26.351563
 20
28.548438
 10
26.351563
 20
27.051562
  0
LWPOLYLINE
  8
0
 62
7
 90
5
 70
1
 10
25.800000
 20
27.051562
 10
26.048438
 20
27.051562
 10
26.048438
 20
28.548438
 10
25.551562
 20
28.548438
 10
25.551562
 20
27.051562
  0
LWPOLYLINE
  8
0
 62
7
 90
5
 70
1
 10
25.000000
 20
27.051562
 10
25.248438
 20
27.051562
 10
25.248438
 20
28.548438
 10
24.751562
 20
28.548438
 10
24.751562
 20
27.051562
  0
LWPOLYLINE
  8
0
 62
7
 90
5
 70
1
 10
23.200000
 20
25.751562
 10
23.948438
 20
25.751562
 10
23.948438
 20
26.248438
 10
22.451562
 20
26.248438
 10
22.451562
 20
25.751562
  0
LWPOLYLINE
  8
0
 62
7
 90
5
 70
1
 10
23.200000
 20
24.951562
 10
23.948438
 20
24.951562
 10
23.948438
 20
25.448438
 10
22.451562
 20
25.448438
 10
22.451562
 20
24.951562
  0
LWPOLYLINE
  8
0
 62
7
 90
5
 70
1
 10
23.200000
 20
24.151562
 10
23.948438
 20
24.151562
 10
23.948438
 20
24.648438
 10
22.451562
 20
24.648438
 10
22.451562
 20
24.151562
  0
LWPOLYLINE
  8
0
 62
7
 90
5
 70
1
 10
23.200000
 20
23.351563
 10
23.948438
 20
23.351563
 10
23.948438
 20
23.848438
 10
22.451562
 20
23.848438
 10
22.451562
 20
23.351563
  0
LWPOLYLINE
  8
0
 62
7
 90
5
 70
1
 10
23.200000
 20
22.551562
 10
23.948438
 20
22.551562
 10
23.948438
 20
23.048438
 10
22.451562
 20
23.048438
 10
22.451562
 20
22.551562
  0
LWPOLYLINE
  8
0
 62
7
 90
5
 70
1
 10
23.200000
 20
21.751562
 10
23.948438
 20
21.751562
 10
23.948438
 20
22.248438
 10
22.451562
 20
22.248438
 10
22.451562
 20
21.751562
  0
LWPOLYLINE
  8
0
 62
7
 90
5
 70
1
 10
23.200000
 20
20.951562
 10
23.948438
 20
20.951562
 10
23.948438
 20
21.448438
 10
22.451562
 20
21.448438
 10
22.451562
 20
20.951562
  0
LWPOLYLINE
  8
0
 62
7
 90
5
 70
1
 10
23.200000
 20
20.151562
 10
23.948438
 20
20.151562
 10
23.948438
 20
20.648438
 10
22.451562
 20
20.648438
 10
22.451562
 20
20.151562
  0
LWPOLYLINE
  8
0
 62
7
 90
5
 70
1
 10
23.200000
 20
19.351563
 10
23.948438
 20
19.351563
 10
23.948438
 20
19.848438
 10
22.451562
 20
19.848438
 10
22.451562
 20
19.351563
  0
LWPOLYLINE
  8
0
 62
7
 90
5
 70
1
 10
23.200000
 20
18.551562
 10
23.948438
 20
18.551562
 10
23.948438
 20
19.048438
 10
22.451562
 20
19.048438
 10
22.451562
 20
18.551562
  0
LWPOLYLINE
  8
0
 62
7
 90
5
 70
1
 10
23.200000
 20
17.751562
 10
23.948438
 20
17.751562
 10
23.948438
 20
18.248438
 10
22.451562
 20
18.248438
 10
22.451562
 20
17.751562
  0
LWPOLYLINE
  8
0
 62
7
 90
5
 70
1
 10
25.000000
 20
15.451562
 10
25.248438
 20
15.451562
 10
25.248438
 20
16.948438
 10
24.751562
 20
16.948438
 10
24.751562
 20
15.451562
  0
LWPOLYLINE
  8
0
 62
7
 90
5
 70
1
 10
25.800000
 20
15.451562
 10
26.048438
 20
15.451562
 10
26.048438
 20
16.948438
 10
25.551562
 20
16.948438
 10
25.551562
 20
15.451562
  0
LWPOLYLINE
  8
0
 62
7
 90
5
 70
1
 10
26.600000
 20
15.451562
 10
26.848438
 20
15.451562
 10
26.848438
 20
16.948438
 10
26.351563
 20
16.948438
 10
26.351563
 20
15.451562
  0
LWPOLYLINE
  8
0
 62
7
 90
5
 70
1
 10
27.400000
 20
15.451562
 10
27.648438
 20
15.451562
 10
27.648438
 20
16.948438
 10
27.151562
 20
16.948438
 10
27.151562
 20
15.451562
  0
LWPOLYLINE
  8
0
 62
7
 90
5
 70
1
 10
28.200000
 20
15.451562
 10
28.448438
 20
15.451562
 10
28.448438
 20
16.948438
 10
27.951562
 20
16.948438
 10
27.951562
 20
15.451562
  0
LWPOLYLINE
  8
0
 62
7
 90
5
 70
1
 10
29.000000
 20
15.451562
 10
29.248438
 20
15.451562
 10
29.248438
 20
16.948438
 10
28.751562
 20
16.948438
 10
28.751562
 20
15.451562
  0
LWPOLYLINE
  8
0
 62
7
 90
5
 70
1
 10
29.800000
 20
15.451562
 10
30.048438
 20
15.451562
 10
30.048438
 20
16.948438
 10
29.551562
 20
16.948438
 10
29.551562
 20
15.451562
  0
LWPOLYLINE
  8
0
 62
7
 90
5
 70
1
 10
30.600000
 20
15.451562
 10
30.848438
 20
15.451562
 10
30.848438
 20
16.948438
 10
30.351563
 20
16.948438
 10
30.351563
 20
15.451562
  0
LWPOLYLINE
  8
0
 62
7
 90
5
 70
1
 10
31.400000
 20
15.451562
 10
31.648438
 20
15.451562
 10
31.648438
 20
16.948438
 10
31.151562
 20
16.948438
 10
31.151562
 20
15.451562
  0
LWPOLYLINE
  8
0
 62
7
 90
5
 70
1
 10
32.200000
 20
15.451562
 10
32.448438
 20
15.451562
 10
32.448438
 20
16.948438
 10
31.951563
 20
16.948438
 10
31.951563
 20
15.451562
  0
LWPOLYLINE
  8
0
 62
7
 90
5
 70
1
 10
33.000000
 20
15.451562
 10
33.248438
 20
15.451562
 10
33.248438
 20
16.948438
 10
32.751562
 20
16.948438
 10
32.751562
 20
15.451562
  0
LWPOLYLINE
  8
0
 62
7
 90
5
 70
1
 10
34.800000
 20
17.751562
 10
35.548437
 20
17.751562
 10
35.548437
 20
18.248438
 10
34.051562
 20
18.248438
 10
34.051562
 20
17.751562
  0
LWPOLYLINE
  8
0
 62
7
 90
5
 70
1
 10
34.800000
 20
18.551562
 10
35.548437
 20
18.551562
 10
35.548437
 20
19.048438
 10
34.051562
 20
19.048438
 10
34.051562
 20
18.551562
  0
LWPOLYLINE
  8
0
 62
7
 90
5
 70
1
 10
34.800000
 20
19.351563
 10
35.548437
 20
19.351563
 10
35.548437
 20
19.848438
 10
34.051562
 20
19.848438
 10
34.051562
 20
19.351563
  0
LWPOLYLINE
  8
0
 62
7
 90
5
 70
1
 10
34.800000
 20
20.151562
 10
35.548437
 20
20.151562
 10
35.548437
 20
20.648438
 10
34.051562
 20
20.648438
 10
34.051562
 20
20.151562
  0
LWPOLYLINE
  8
0
 62
7
 90
5
 70
1
 10
34.800000
 20
20.951562
 10
35.548437
 20
20.951562
 10
35.548437
 20
21.448438
 10
34.051562
 20
21.448438
 10
34.051562
 20
20.951562
  0
LWPOLYLINE
  8
0
 62
7
 90
5
 70
1
 10
34.800000
 20
21.751562
 10
35.548437
 20
21.751562
 10
35.548437
 20
22.248438
 10
34.051562
 20
22.248438
 10
34.051562
 20
21.751562
  0
LWPOLYLINE
  8
0
 62
7
 90
5
 70
1
 10
34.800000
 20
22.551562
 10
35.548437
 20
22.551562
 10
35.548437
 20
23.048438
 10
34.051562
 20
23.048438
 10
34.051562
 20
22.551562
  0
LWPOLYLINE
  8
0
 62
7
 90
5
 70
1
 10
34.800000
 20
23.351563
 10
35.548437
 20
23.351563
 10
35.548437
 20
23.848438
 10
34.051562
 20
23.848438
 10
34.051562
 20
23.351563
  0
LWPOLYLINE
  8
0
 62
7
 90
5
 70
1
 10
34.800000
 20
24.151562
 10
35.548437
 20
24.151562
 10
35.548437
 20
24.648438
 10
34.051562
 20
24.648438
 10
34.051562
 20
24.151562
  0
LWPOLYLINE
  8
0
 62
7
 90
5
 70
1
 10
34.800000
 20
24.951562
 10
35.548437
 20
24.951562
 10
35.548437
 20
25.448438
 10
34.051562
 20
25.448438
 10
34.051562
 20
24.951562
  0
LWPOLYLINE
  8
0
 62
7
 90
5
 70
1
 10
34.800000
 20
25.751562
 10
35.548437
 20
25.751562
 10
35.548437
 20
26.248438
 10
34.051562
 20
26.248438
 10
34.051562
 20
25.751562
  0
LWPOLYLINE
  8
0
 62
7
 90
5
 70
1
 10
7.095000
 20
22.926563
 10
7.818437
 20
22.926563
 10
7.818437
 20
23.523438
 10
6.371562
 20
23.523438
 10
6.371562
 20
22.926563
  0
LWPOLYLINE
  8
0
 62
7
 90
5
 70
1
 10
7.095000
 20
22.151563
 10
7.818437
 20
22.151563
 10
7.818437
 20
22.748437
 10
6.371562
 20
22.748437
 10
6.371562
 20
22.151563
  0
LWPOLYLINE
  8
0
 62
7
 90
5
 70
1
 10
7.095000
 20
21.101563
 10
7.818437
 20
21.101563
 10
7.818437
 20
21.398438
 10
6.371562
 20
21.398438
 10
6.371562
 20
21.101563
  0
LWPOLYLINE
  8
0
 62
7
 90
5
 70
1
 10
7.095000
 20
20.101563
 10
7.818437
 20
20.101563
 10
7.818437
 20
20.398438
 10
6.371562
 20
20.398438
 10
6.371562
 20
20.101563
  0
LWPOLYLINE
  8
0
 62
7
 90
5
 70
1
 10
7.095000
 20
19.601563
 10
7.818437
 20
19.601563
 10
7.818437
 20
19.898438
 10
6.371562
 20
19.898438
 10
6.371562
 20
19.601563
  0
LWPOLYLINE
  8
0
 62
7
 90
5
 70
1
 10
7.095000
 20
18.601563
 10
7.818437
 20
18.601563
 10
7.818437
 20
18.898438
 10
6.371562
 20
18.898438
 10
6.371562
 20
18.601563
  0
LWPOLYLINE
  8
0
 62
7
 90
5
 70
1
 10
7.095000
 20
17.251563
 10
7.818437
 20
17.251563
 10
7.818437
 20
17.848437
 10
6.371562
 20
17.848437
 10
6.371562
 20
17.251563
  0
LWPOLYLINE
  8
0
 62
7
 90
5
 70
1
 10
7.095000
 20
16.476563
 10
7.818437
 20
16.476563
 10
7.818437
 20
17.073437
 10
6.371562
 20
17.073437
 10
6.371562
 20
16.476563
  0
LWPOLYLINE
  8
0
 62
7
 90
5
 70
1
 10
7.095000
 20
18.101563
 10
7.818437
 20
18.101563
 10
7.818437
 20
18.398438
 10
6.371562
 20
18.398438
 10
6.371562
 20
18.101563
  0
LWPOLYLINE
  8
0
 62
7
 90
5
 70
1
 10
7.095000
 20
19.101563
 10
7.818437
 20
19.101563
 10
7.818437
 20
19.398438
 10
6.371562
 20
19.398438
 10
6.371562
 20
19.101563
  0
LWPOLYLINE
  8
0
 62
7
 90
5
 70
1
 10
7.095000
 20
20.601563
 10
7.818437
 20
20.601563
 10
7.818437
 20
20.898438
 10
6.371562
 20
20.898438
 10
6.371562
 20
20.601563
  0
LWPOLYLINE
  8
0
 62
7
 90
5
 70
1
 10
7.095000
 20
21.601563
 10
7.818437
 20
21.601563
 10
7.818437
 20
21.898438
 10
6.371562
 20
21.898438
 10
6.371562
 20
21.601563
  0
LWPOLYLINE
  8
0
 62
7
 90
5
 70
1
 10
106.382563
 20
19.000000
 10
106.382563
 20
18.620562
 10
107.141437
 20
18.620562
 10
107.141437
 20
19.379438
 10
106.382563
 20
19.379438
  0
LWPOLYLINE
  8
0
 62
7
 90
5
 70
1
 10
104.858563
 20
19.000000
 10
104.858563
 20
18.620562
 10
105.617437
 20
18.620562
 10
105.617437
 20
19.379438
 10
104.858563
 20
19.379438
  0
LWPOLYLINE
  8
0
 62
7
 90
5
 70
1
 10
106.382563
 20
22.500000
 10
106.382563
 20
22.120562
 10
107.141437
 20
22.120562
 10
107.141437
 20
22.879438
 10
106.382563
 20
22.879438
  0
LWPOLYLINE
  8
0
 62
7
 90
5
 70
1
 10
104.858563
 20
22.500000
 10
104.858563
 20
22.120562
 10
105.617437
 20
22.120562
 10
105.617437
 20
22.879438
 10
104.858563
 20
22.879438
  0
LWPOLYLINE
  8
0
 62
7
 90
5
 70
1
 10
106.382563
 20
25.000000
 10
106.382563
 20
24.620562
 10
107.141437
 20
24.620562
 10
107.141437
 20
25.379438
 10
106.382563
 20
25.379438
  0
LWPOLYLINE
  8
0
 62
7
 90
5
 70
1
 10
104.858563
 20
25.000000
 10
104.858563
 20
24.620562
 10
105.617437
 20
24.620562
 10
105.617437
 20
25.379438
 10
104.858563
 20
25.379438
  0
LWPOLYLINE
  8
0
 62
7
 90
5
 70
1
 10
106.382563
 20
27.500000
 10
106.382563
 20
27.120562
 10
107.141437
 20
27.120562
 10
107.141437
 20
27.879438
 10
106.382563
 20
27.879438
  0
LWPOLYLINE
  8
0
 62
7
 90
5
 70
1
 10
104.858563
 20
27.500000
 10
104.858563
 20
27.120562
 10
105.617437
 20
27.120562
 10
105.617437
 20
27.879438
 10
104.858563
 20
27.879438
  0
LWPOLYLINE
  8
0
 62
7
 90
5
 70
1
 10
96.001563
 20
21.000000
 10
96.001563
 20
18.001562
 10
98.998437
 20
18.001562
 10
98.998437
 20
23.998438
 10
96.001563
 20
23.998438
  0
LWPOLYLINE
  8
0
 62
7
 90
5
 70
1
 10
84.001563
 20
21.000000
 10
84.001563
 20
18.001562
 10
86.998437
 20
18.001562
 10
86.998437
 20
23.998438
 10
84.001563
 20
23.998438
  0
LWPOLYLINE
  8
0
 62
7
 90
5
 70
1
 10
32.500000
 20
31.382562
 10
32.879438
 20
31.382562
 10
32.879438
 20
32.141438
 10
32.120562
 20
32.141438
 10
32.120562
 20
31.382562
  0
LWPOLYLINE
  8
0
 62
7
 90
5
 70
1
 10
32.500000
 20
29.858562
 10
32.879438
 20
29.858562
 10
32.879438
 20
30.617438
 10
32.120562
 20
30.617438
 10
32.120562
 20
29.858562
  0
LWPOLYLINE
  8
0
 62
7
 90
5
 70
1
 10
20.500000
 20
27.382562
 10
20.879438
 20
27.382562
 10
20.879438
 20
28.141438
 10
20.120562
 20
28.141438
 10
20.120562
 20
27.382562
  0
LWPOLYLINE
  8
0
 62
7
 90
5
 70
1
 10
20.500000
 20
25.858562
 10
20.879438
 20
25.858562
 10
20.879438
 20
26.617438
 10
20.120562
 20
26.617438
 10
20.120562
 20
25.858562
  0
LWPOLYLINE
  8
0
 62
7
 90
5
 70
1
 10
109.617437
 20
19.000000
 10
109.617437
 20
19.379438
 10
108.858563
 20
19.379438
 10
108.858563
 20
18.620562
 10
109.617437
 20
18.620562
  0
LWPOLYLINE
  8
0
 62
7
 90
5
 70
1
 10
111.141437
 20
19.000000
 10
111.141437
 20
19.379438
 10
110.382563
 20
19.379438
 10
110.382563
 20
18.620562
 10
111.141437
 20
18.620562
  0
LWPOLYLINE
  8
0
 62
7
 90
5
 70
1
 10
109.617437
 20
22.500000
 10
109.617437
 20
22.879438
 10
108.858563
 20
22.879438
 10
108.858563
 20
22.120562
 10
109.617437
 20
22.120562
  0
LWPOLYLINE
  8
0
 62
7
 90
5
 70
1
 10
111.141437
 20
22.500000
 10
111.141437
 20
22.879438
 10
110.382563
 20
22.879438
 10
110.382563
 20
22.120562
 10
111.141437
 20
22.120562
  0
LWPOLYLINE
  8
0
 62
7
 90
5
 70
1
 10
109.617437
 20
25.000000
 10
109.617437
 20
25.379438
 10
108.858563
 20
25.379438
 10
108.858563
 20
24.620562
 10
109.617437
 20
24.620562
  0
LWPOLYLINE
  8
0
 62
7
 90
5
 70
1
 10
111.141437
 20
25.000000
 10
111.141437
 20
25.379438
 10
110.382563
 20
25.379438
 10
110.382563
 20
24.620562
 10
111.141437
 20
24.620562
  0
LWPOLYLINE
  8
0
 62
7
 90
5
 70
1
 10
30.500000
 20
31.382562
 10
30.879438
 20
31.382562
 10
30.879438
 20
32.141438
 10
30.120562
 20
32.141438
 10
30.120562
 20
31.382562
  0
LWPOLYLINE
  8
0
 62
7
 90
5
 70
1
 10
30.500000
 20
29.858562
 10
30.879438
 20
29.858562
 10
30.879438
 20
30.617438
 10
30.120562
 20
30.617438
 10
30.120562
 20
29.858562
  0
LWPOLYLINE
  8
0
 62
7
 90
5
 70
1
 10
9.500000
 20
16.117438
 10
9.120563
 20
16.117438
 10
9.120563
 20
15.358562
 10
9.879437
 20
15.358562
 10
9.879437
 20
16.117438
  0
LWPOLYLINE
  8
0
 62
7
 90
5
 70
1
 10
9.500000
 20
17.641438
 10
9.120563
 20
17.641438
 10
9.120563
 20
16.882562
 10
9.879437
 20
16.882562
 10
9.879437
 20
17.641438
  0
LWPOLYLINE
  8
0
 62
7
 90
5
 70
1
 10
109.617437
 20
27.500000
 10
109.617437
 20
27.879438
 10
108.858563
 20
27.879438
 10
108.858563
 20
27.120562
 10
109.617437
 20
27.120562
  0
LWPOLYLINE
  8
0
 62
7
 90
5
 70
1
 10
111.141437
 20
27.500000
 10
111.141437
 20
27.879438
 10
110.382563
 20
27.879438
 10
110.382563
 20
27.120562
 10
111.141437
 20
27.120562
  0
LWPOLYLINE
  8
0
 62
7
 90
5
 70
1
 10
16.500000
 20
5.617438
 10
16.120562
 20
5.617438
 10
16.120562
 20
4.858563
 10
16.879438
 20
4.858563
 10
16.879438
 20
5.617438
  0
LWPOLYLINE
  8
0
 62
7
 90
5
 70
1
 10
16.500000
 20
7.141437
 10
16.120562
 20
7.141437
 10
16.120562
 20
6.382562
 10
16.879438
 20
6.382562
 10
16.879438
 20
7.141437
  0
LWPOLYLINE
  8
0
 62
7
 90
5
 70
1
 10
29.500000
 20
5.617438
 10
29.120562
 20
5.617438
 10
29.120562
 20
4.858563
 10
29.879438
 20
4.858563
 10
29.879438
 20
5.617438
  0
LWPOLYLINE
  8
0
 62
7
 90
5
 70
1
 10
29.500000
 20
7.141437
 10
29.120562
 20
7.141437
 10
29.120562
 20
6.382562
 10
29.879438
 20
6.382562
 10
29.879438
 20
7.141437
  0
LWPOLYLINE
  8
0
 62
7
 90
5
 70
1
 10
42.500000
 20
5.617438
 10
42.120562
 20
5.617438
 10
42.120562
 20
4.858563
 10
42.879438
 20
4.858563
 10
42.879438
 20
5.617438
  0
LWPOLYLINE
  8
0
 62
7
 90
5
 70
1
 10
42.500000
 20
7.141437
 10
42.120562
 20
7.141437
 10
42.120562
 20
6.382562
 10
42.879438
 20
6.382562
 10
42.879438
 20
7.141437
  0
LWPOLYLINE
  8
0
 62
7
 90
5
 70
1
 10
55.500000
 20
5.617438
 10
55.120562
 20
5.617438
 10
55.120562
 20
4.858563
 10
55.879438
 20
4.858563
 10
55.879438
 20
5.617438
  0
LWPOLYLINE
  8
0
 62
7
 90
5
 70
1
 10
55.500000
 20
7.141437
 10
55.120562
 20
7.141437
 10
55.120562
 20
6.382562
 10
55.879438
 20
6.382562
 10
55.879438
 20
7.141437
  0
LWPOLYLINE
  8
0
 62
7
 90
5
 70
1
 10
18.500000
 20
6.382562
 10
18.879438
 20
6.382562
 10
18.879438
 20
7.141437
 10
18.120562
 20
7.141437
 10
18.120562
 20
6.382562
  0
LWPOLYLINE
  8
0
 62
7
 90
5
 70
1
 10
18.500000
 20
4.858563
 10
18.879438
 20
4.858563
 10
18.879438
 20
5.617438
 10
18.120562
 20
5.617438
 10
18.120562
 20
4.858563
  0
LWPOLYLINE
  8
0
 62
7
 90
5
 70
1
 10
31.500000
 20
6.382562
 10
31.879438
 20
6.382562
 10
31.879438
 20
7.141437
 10
31.120562
 20
7.141437
 10
31.120562
 20
6.382562
  0
LWPOLYLINE
  8
0
 62
7
 90
5
 70
1
 10
31.500000
 20
4.858563
 10
31.879438
 20
4.858563
 10
31.879438
 20
5.617438
 10
31.120562
 20
5.617438
 10
31.120562
 20
4.858563
  0
LWPOLYLINE
  8
0
 62
7
 90
5
 70
1
 10
44.500000
 20
6.382562
 10
44.879438
 20
6.382562
 10
44.879438
 20
7.141437
 10
44.120562
 20
7.141437
 10
44.120562
 20
6.382562
  0
LWPOLYLINE
  8
0
 62
7
 90
5
 70
1
 10
44.500000
 20
4.858563
 10
44.879438
 20
4.858563
 10
44.879438
 20
5.617438
 10
44.120562
 20
5.617438
 10
44.120562
 20
4.858563
  0
LWPOLYLINE
  8
0
 62
7
 90
5
 70
1
 10
57.500000
 20
6.382562
 10
57.879438
 20
6.382562
 10
57.879438
 20
7.141437
 10
57.120562
 20
7.141437
 10
57.120562
 20
6.382562
  0
LWPOLYLINE
  8
0
 62
7
 90
5
 70
1
 10
57.500000
 20
4.858563
 10
57.879438
 20
4.858563
 10
57.879438
 20
5.617438
 10
57.120562
 20
5.617438
 10
57.120562
 20
4.858563
  0
LWPOLYLINE
  8
0
 62
7
 90
5
 70
1
 10
68.500000
 20
5.617438
 10
68.120563
 20
5.617438
 10
68.120563
 20
4.858563
 10
68.879437
 20
4.858563
 10
68.879437
 20
5.617438
  0
LWPOLYLINE
  8
0
 62
7
 90
5
 70
1
 10
68.500000
 20
7.141437
 10
68.120563
 20
7.141437
 10
68.120563
 20
6.382562
 10
68.879437
 20
6.382562
 10
68.879437
 20
7.141437
  0
LWPOLYLINE
  8
0
 62
7
 90
5
 70
1
 10
9.500000
 20
23.882562
 10
9.879437
 20
23.882562
 10
9.879437
 20
24.641438
 10
9.120563
 20
24.641438
 10
9.120563
 20
23.882562
  0
LWPOLYLINE
  8
0
 62
7
 90
5
 70
1
 10
9.500000
 20
22.358562
 10
9.879437
 20
22.358562
 10
9.879437
 20
23.117438
 10
9.120563
 20
23.117438
 10
9.120563
 20
22.358562
  0
LWPOLYLINE
  8
0
 62
7
 90
5
 70
1
 10
81.500000
 20
5.617438
 10
81.120563
 20
5.617438
 10
81.120563
 20
4.858563
 10
81.879437
 20
4.858563
 10
81.879437
 20
5.617438
  0
LWPOLYLINE
  8
0
 62
7
 90
5
 70
1
 10
81.500000
 20
7.141437
 10
81.120563
 20
7.141437
 10
81.120563
 20
6.382562
 10
81.879437
 20
6.382562
 10
81.879437
 20
7.141437
  0
LWPOLYLINE
  8
0
 62
7
 90
5
 70
1
 10
94.500000
 20
5.617438
 10
94.120563
 20
5.617438
 10
94.120563
 20
4.858563
 10
94.879437
 20
4.858563
 10
94.879437
 20
5.617438
  0
LWPOLYLINE
  8
0
 62
7
 90
5
 70
1
 10
94.500000
 20
7.141437
 10
94.120563
 20
7.141437
 10
94.120563
 20
6.382562
 10
94.879437
 20
6.382562
 10
94.879437
 20
7.141437
  0
LWPOLYLINE
  8
0
 62
7
 90
5
 70
1
 10
107.500000
 20
8.617437
 10
107.120563
 20
8.617437
 10
107.120563
 20
7.858562
 10
107.879437
 20
7.858562
 10
107.879437
 20
8.617437
  0
LWPOLYLINE
  8
0
 62
7
 90
5
 70
1
 10
107.500000
 20
10.141438
 10
107.120563
 20
10.141438
 10
107.120563
 20
9.382563
 10
107.879437
 20
9.382563
 10
107.879437
 20
10.141438
  0
LWPOLYLINE
  8
0
 62
7
 90
5
 70
1
 10
70.500000
 20
6.382562
 10
70.879437
 20
6.382562
 10
70.879437
 20
7.141437
 10
70.120563
 20
7.141437
 10
70.120563
 20
6.382562
  0
LWPOLYLINE
  8
0
 62
7
 90
5
 70
1
 10
70.500000
 20
4.858563
 10
70.879437
 20
4.858563
 10
70.879437
 20
5.617438
 10
70.120563
 20
5.617438
 10
70.120563
 20
4.858563
  0
LWPOLYLINE
  8
0
 62
7
 90
5
 70
1
 10
83.500000
 20
6.382562
 10
83.879437
 20
6.382562
 10
83.879437
 20
7.141437
 10
83.120563
 20
7.141437
 10
83.120563
 20
6.382562
  0
LWPOLYLINE
  8
0
 62
7
 90
5
 70
1
 10
83.500000
 20
4.858563
 10
83.879437
 20
4.858563
 10
83.879437
 20
5.617438
 10
83.120563
 20
5.617438
 10
83.120563
 20
4.858563
  0
LWPOLYLINE
  8
0
 62
7
 90
5
 70
1
 10
96.500000
 20
6.382562
 10
96.879437
 20
6.382562
 10
96.879437
 20
7.141437
 10
96.120563
 20
7.141437
 10
96.120563
 20
6.382562
  0
LWPOLYLINE
  8
0
 62
7
 90
5
 70
1
 10
96.500000
 20
4.858563
 10
96.879437
 20
4.858563
 10
96.879437
 20
5.617438
 10
96.120563
 20
5.617438
 10
96.120563
 20
4.858563
  0
LWPOLYLINE
  8
0
 62
7
 90
5
 70
1
 10
109.500000
 20
9.382563
 10
109.879437
 20
9.382563
 10
109.879437
 20
10.141438
 10
109.120563
 20
10.141438
 10
109.120563
 20
9.382563
  0
LWPOLYLINE
  8
0
 62
7
 90
5
 70
1
 10
109.500000
 20
7.858562
 10
109.879437
 20
7.858562
 10
109.879437
 20
8.617437
 10
109.120563
 20
8.617437
 10
109.120563
 20
7.858562
  0
LWPOLYLINE
  8
0
 62
7
 90
5
 70
1
 10
17.950000
 20
37.698437
 10
17.251562
 20
37.698437
 10
17.251562
 20
36.301563
 10
18.648438
 20
36.301563
 10
18.648438
 20
37.698437
  0
LWPOLYLINE
  8
0
 62
7
 90
5
 70
1
 10
22.050000
 20
37.698437
 10
21.351563
 20
37.698437
 10
21.351563
 20
36.301563
 10
22.748438
 20
36.301563
 10
22.748438
 20
37.698437
  0
LWPOLYLINE
  8
0
 62
7
 90
5
 70
1
 10
11.050000
 20
36.301563
 10
11.748438
 20
36.301563
 10
11.748438
 20
37.698437
 10
10.351563
 20
37.698437
 10
10.351563
 20
36.301563
  0
LWPOLYLINE
  8
0
 62
7
 90
5
 70
1
 10
6.950000
 20
36.301563
 10
7.648438
 20
36.301563
 10
7.648438
 20
37.698437
 10
6.251563
 20
37.698437
 10
6.251563
 20
36.301563
  0
LWPOLYLINE
  8
0
 62
7
 90
5
 70
1
 10
101.250000
 20
35.501562
 10
101.598438
 20
35.501562
 10
101.598438
 20
36.998438
 10
100.901562
 20
36.998438
 10
100.901562
 20
35.501562
  0
LWPOLYLINE
  8
0
 62
7
 90
5
 70
1
 10
98.250000
 20
35.501562
 10
98.598438
 20
35.501562
 10
98.598438
 20
36.998438
 10
97.901562
 20
36.998438
 10
97.901562
 20
35.501562
  0
LWPOLYLINE
  8
0
 62
7
 90
5
 70
1
 10
96.750000
 20
35.501562
 10
97.098438
 20
35.501562
 10
97.098438
 20
36.998438
 10
96.401562
 20
36.998438
 10
96.401562
 20
35.501562
  0
LWPOLYLINE
  8
0
 62
7
 90
5
 70
1
 10
102.151563
 20
36.950000
 10
102.151563
 20
36.551563
 10
103.148438
 20
36.551563
 10
103.148438
 20
37.348438
 10
102.151563
 20
37.348438
  0
LWPOLYLINE
  8
0
 62
7
 90
5
 70
1
 10
102.151563
 20
39.050000
 10
102.151563
 20
38.651562
 10
103.148438
 20
38.651562
 10
103.148438
 20
39.448437
 10
102.151563
 20
39.448437
  0
LWPOLYLINE
  8
0
 62
7
 90
5
 70
1
 10
94.851563
 20
36.950000
 10
94.851563
 20
36.551563
 10
95.848437
 20
36.551563
 10
95.848437
 20
37.348438
 10
94.851563
 20
37.348438
  0
LWPOLYLINE
  8
0
 62
7
 90
5
 70
1
 10
94.851563
 20
39.050000
 10
94.851563
 20
38.651562
 10
95.848437
 20
38.651562
 10
95.848437
 20
39.448437
 10
94.851563
 20
39.448437
  0
LWPOLYLINE
  8
0
 62
7
 90
5
 70
1
 10
16.100000
 20
24.001562
 10
16.648438
 20
24.001562
 10
16.648438
 20
25.298437
 10
15.551563
 20
25.298437
 10
15.551563
 20
24.001562
  0
LWPOLYLINE
  8
0
 62
7
 90
5
 70
1
 10
16.100000
 20
21.701563
 10
16.648438
 20
21.701563
 10
16.648438
 20
22.998438
 10
15.551563
 20
22.998438
 10
15.551563
 20
21.701563
  0
LWPOLYLINE
  8
0
 62
7
 90
5
 70
1
 10
17.900000
 20
21.701563
 10
18.448437
 20
21.701563
 10
18.448437
 20
22.998438
 10
17.351563
 20
22.998438
 10
17.351563
 20
21.701563
  0
LWPOLYLINE
  8
0
 62
7
 90
5
 70
1
 10
17.900000
 20
24.001562
 10
18.448437
 20
24.001562
 10
18.448437
 20
25.298437
 10
17.351563
 20
25.298437
 10
17.351563
 20
24.001562
  0
LWPOLYLINE
  8
0
 62
7
 90
5
 70
1
 10
34.500000
 20
30.617438
 10
34.120562
 20
30.617438
 10
34.120562
 20
29.858562
 10
34.879438
 20
29.858562
 10
34.879438
 20
30.617438
  0
LWPOLYLINE
  8
0
 62
7
 90
5
 70
1
 10
34.500000
 20
32.141438
 10
34.120562
 20
32.141438
 10
34.120562
 20
31.382562
 10
34.879438
 20
31.382562
 10
34.879438
 20
32.141438
  0
LWPOLYLINE
  8
0
 62
7
 90
5
 70
1
 10
28.500000
 20
30.617438
 10
28.120562
 20
30.617438
 10
28.120562
 20
29.858562
 10
28.879438
 20
29.858562
 10
28.879438
 20
30.617438
  0
LWPOLYLINE
  8
0
 62
7
 90
5
 70
1
 10
28.500000
 20
32.141438
 10
28.120562
 20
32.141438
 10
28.120562
 20
31.382562
 10
28.879438
 20
31.382562
 10
28.879438
 20
32.141438
  0
ENDSEC
  0
EOF
